<mxfile host="65bd71144e">
    <diagram id="jBs-zmnSxuR3EYOVZ4C9" name="Page-1">
        <mxGraphModel dx="3193" dy="755" grid="1" gridSize="10" guides="1" tooltips="1" connect="1" arrows="1" fold="1" page="1" pageScale="1" pageWidth="850" pageHeight="1100" math="0" shadow="0">
            <root>
                <mxCell id="0"/>
                <mxCell id="1" parent="0"/>
                <mxCell id="2" value="Users&lt;br&gt;" style="rounded=0;whiteSpace=wrap;html=1;" parent="1" vertex="1">
                    <mxGeometry x="100" y="190" width="120" height="60" as="geometry"/>
                </mxCell>
                <mxCell id="3" value="&lt;u&gt;user_id&lt;/u&gt;" style="ellipse;whiteSpace=wrap;html=1;" parent="1" vertex="1">
                    <mxGeometry x="10" y="100" width="60" height="40" as="geometry"/>
                </mxCell>
                <mxCell id="4" value="" style="endArrow=none;html=1;entryX=0.25;entryY=0;entryDx=0;entryDy=0;exitX=0.5;exitY=1;exitDx=0;exitDy=0;" parent="1" source="3" target="2" edge="1">
                    <mxGeometry width="50" height="50" relative="1" as="geometry">
                        <mxPoint x="120" y="330" as="sourcePoint"/>
                        <mxPoint x="170" y="280" as="targetPoint"/>
                    </mxGeometry>
                </mxCell>
                <mxCell id="5" value="email" style="ellipse;whiteSpace=wrap;html=1;" parent="1" vertex="1">
                    <mxGeometry x="60" y="40" width="60" height="40" as="geometry"/>
                </mxCell>
                <mxCell id="7" value="" style="endArrow=none;html=1;entryX=0.379;entryY=0.007;entryDx=0;entryDy=0;exitX=0.5;exitY=1;exitDx=0;exitDy=0;entryPerimeter=0;" parent="1" source="5" target="2" edge="1">
                    <mxGeometry width="50" height="50" relative="1" as="geometry">
                        <mxPoint x="120" y="330" as="sourcePoint"/>
                        <mxPoint x="170" y="280" as="targetPoint"/>
                    </mxGeometry>
                </mxCell>
                <mxCell id="9" value="password" style="ellipse;whiteSpace=wrap;html=1;" parent="1" vertex="1">
                    <mxGeometry x="130" y="20" width="60" height="40" as="geometry"/>
                </mxCell>
                <mxCell id="11" value="" style="endArrow=none;html=1;exitX=0.5;exitY=0;exitDx=0;exitDy=0;entryX=0.5;entryY=1;entryDx=0;entryDy=0;" parent="1" source="2" target="9" edge="1">
                    <mxGeometry width="50" height="50" relative="1" as="geometry">
                        <mxPoint x="550" y="320" as="sourcePoint"/>
                        <mxPoint x="600" y="270" as="targetPoint"/>
                    </mxGeometry>
                </mxCell>
                <mxCell id="12" value="created_at" style="ellipse;whiteSpace=wrap;html=1;" parent="1" vertex="1">
                    <mxGeometry x="200" y="50" width="70" height="40" as="geometry"/>
                </mxCell>
                <mxCell id="13" value="" style="endArrow=none;html=1;exitX=0.75;exitY=0;exitDx=0;exitDy=0;entryX=0.5;entryY=1;entryDx=0;entryDy=0;" parent="1" source="2" target="12" edge="1">
                    <mxGeometry width="50" height="50" relative="1" as="geometry">
                        <mxPoint x="190" y="190" as="sourcePoint"/>
                        <mxPoint x="630" y="270" as="targetPoint"/>
                    </mxGeometry>
                </mxCell>
                <mxCell id="14" value="status" style="ellipse;whiteSpace=wrap;html=1;" parent="1" vertex="1">
                    <mxGeometry x="290" y="60" width="60" height="40" as="geometry"/>
                </mxCell>
                <mxCell id="15" value="" style="endArrow=none;html=1;entryX=0;entryY=0.5;entryDx=0;entryDy=0;" parent="1" target="14" edge="1">
                    <mxGeometry width="50" height="50" relative="1" as="geometry">
                        <mxPoint x="210" y="190" as="sourcePoint"/>
                        <mxPoint x="730" y="350" as="targetPoint"/>
                    </mxGeometry>
                </mxCell>
                <mxCell id="16" value="role" style="ellipse;whiteSpace=wrap;html=1;" parent="1" vertex="1">
                    <mxGeometry x="300" y="120" width="60" height="40" as="geometry"/>
                </mxCell>
                <mxCell id="17" value="" style="endArrow=none;html=1;entryX=0;entryY=0.5;entryDx=0;entryDy=0;" parent="1" source="2" target="16" edge="1">
                    <mxGeometry width="50" height="50" relative="1" as="geometry">
                        <mxPoint x="290" y="310" as="sourcePoint"/>
                        <mxPoint x="730" y="390" as="targetPoint"/>
                    </mxGeometry>
                </mxCell>
                <mxCell id="19" value="User_profile" style="rounded=0;whiteSpace=wrap;html=1;" parent="1" vertex="1">
                    <mxGeometry x="515" y="230" width="120" height="60" as="geometry"/>
                </mxCell>
                <mxCell id="20" value="&lt;u&gt;profile_id&lt;/u&gt;" style="ellipse;whiteSpace=wrap;html=1;" parent="1" vertex="1">
                    <mxGeometry x="425" y="140" width="60" height="40" as="geometry"/>
                </mxCell>
                <mxCell id="21" value="" style="endArrow=none;html=1;entryX=0.25;entryY=0;entryDx=0;entryDy=0;exitX=0.5;exitY=1;exitDx=0;exitDy=0;" parent="1" source="20" target="19" edge="1">
                    <mxGeometry width="50" height="50" relative="1" as="geometry">
                        <mxPoint x="535" y="370" as="sourcePoint"/>
                        <mxPoint x="585" y="320" as="targetPoint"/>
                    </mxGeometry>
                </mxCell>
                <mxCell id="22" value="user_id" style="ellipse;whiteSpace=wrap;html=1;" parent="1" vertex="1">
                    <mxGeometry x="475" y="80" width="60" height="40" as="geometry"/>
                </mxCell>
                <mxCell id="23" value="" style="endArrow=none;html=1;entryX=0.379;entryY=0.007;entryDx=0;entryDy=0;exitX=0.5;exitY=1;exitDx=0;exitDy=0;entryPerimeter=0;" parent="1" source="22" target="19" edge="1">
                    <mxGeometry width="50" height="50" relative="1" as="geometry">
                        <mxPoint x="535" y="370" as="sourcePoint"/>
                        <mxPoint x="585" y="320" as="targetPoint"/>
                    </mxGeometry>
                </mxCell>
                <mxCell id="24" value="first_name" style="ellipse;whiteSpace=wrap;html=1;" parent="1" vertex="1">
                    <mxGeometry x="510" y="30" width="75" height="40" as="geometry"/>
                </mxCell>
                <mxCell id="25" value="" style="endArrow=none;html=1;exitX=0.5;exitY=0;exitDx=0;exitDy=0;entryX=0.5;entryY=1;entryDx=0;entryDy=0;" parent="1" source="19" target="24" edge="1">
                    <mxGeometry width="50" height="50" relative="1" as="geometry">
                        <mxPoint x="965" y="360" as="sourcePoint"/>
                        <mxPoint x="1015" y="310" as="targetPoint"/>
                    </mxGeometry>
                </mxCell>
                <mxCell id="26" value="last_name" style="ellipse;whiteSpace=wrap;html=1;" parent="1" vertex="1">
                    <mxGeometry x="565" y="70" width="70" height="40" as="geometry"/>
                </mxCell>
                <mxCell id="27" value="" style="endArrow=none;html=1;exitX=0.589;exitY=-0.005;exitDx=0;exitDy=0;entryX=0.5;entryY=1;entryDx=0;entryDy=0;exitPerimeter=0;" parent="1" source="19" target="26" edge="1">
                    <mxGeometry width="50" height="50" relative="1" as="geometry">
                        <mxPoint x="605" y="230" as="sourcePoint"/>
                        <mxPoint x="1045" y="310" as="targetPoint"/>
                    </mxGeometry>
                </mxCell>
                <mxCell id="28" value="date_of_birth" style="ellipse;whiteSpace=wrap;html=1;" parent="1" vertex="1">
                    <mxGeometry x="660" y="40" width="85" height="40" as="geometry"/>
                </mxCell>
                <mxCell id="29" value="" style="endArrow=none;html=1;entryX=0;entryY=0.5;entryDx=0;entryDy=0;exitX=0.651;exitY=-0.001;exitDx=0;exitDy=0;exitPerimeter=0;" parent="1" source="19" target="28" edge="1">
                    <mxGeometry width="50" height="50" relative="1" as="geometry">
                        <mxPoint x="625" y="230" as="sourcePoint"/>
                        <mxPoint x="1145" y="390" as="targetPoint"/>
                    </mxGeometry>
                </mxCell>
                <mxCell id="30" value="gender" style="ellipse;whiteSpace=wrap;html=1;" parent="1" vertex="1">
                    <mxGeometry x="662.32" y="100" width="60" height="40" as="geometry"/>
                </mxCell>
                <mxCell id="31" value="" style="endArrow=none;html=1;entryX=0;entryY=0.5;entryDx=0;entryDy=0;exitX=0.75;exitY=0;exitDx=0;exitDy=0;" parent="1" source="19" target="30" edge="1">
                    <mxGeometry width="50" height="50" relative="1" as="geometry">
                        <mxPoint x="630" y="230" as="sourcePoint"/>
                        <mxPoint x="1145" y="430" as="targetPoint"/>
                    </mxGeometry>
                </mxCell>
                <mxCell id="33" value="weight" style="ellipse;whiteSpace=wrap;html=1;" parent="1" vertex="1">
                    <mxGeometry x="685" y="150" width="60" height="40" as="geometry"/>
                </mxCell>
                <mxCell id="34" value="" style="endArrow=none;html=1;entryX=0;entryY=0.5;entryDx=0;entryDy=0;exitX=0.999;exitY=0.115;exitDx=0;exitDy=0;exitPerimeter=0;" parent="1" source="19" target="33" edge="1">
                    <mxGeometry width="50" height="50" relative="1" as="geometry">
                        <mxPoint x="630" y="240" as="sourcePoint"/>
                        <mxPoint x="1152.2" y="500" as="targetPoint"/>
                    </mxGeometry>
                </mxCell>
                <mxCell id="35" value="height" style="ellipse;whiteSpace=wrap;html=1;" parent="1" vertex="1">
                    <mxGeometry x="770" y="170" width="60" height="40" as="geometry"/>
                </mxCell>
                <mxCell id="36" value="" style="endArrow=none;html=1;entryX=0;entryY=0.5;entryDx=0;entryDy=0;exitX=0.996;exitY=0.296;exitDx=0;exitDy=0;exitPerimeter=0;" parent="1" source="19" target="35" edge="1">
                    <mxGeometry width="50" height="50" relative="1" as="geometry">
                        <mxPoint x="635" y="288.45" as="sourcePoint"/>
                        <mxPoint x="1152.32" y="551.55" as="targetPoint"/>
                    </mxGeometry>
                </mxCell>
                <mxCell id="37" value="profile_pic" style="ellipse;whiteSpace=wrap;html=1;" parent="1" vertex="1">
                    <mxGeometry x="722.32" y="230" width="60" height="40" as="geometry"/>
                </mxCell>
                <mxCell id="38" value="" style="endArrow=none;html=1;entryX=0;entryY=0.5;entryDx=0;entryDy=0;exitX=1;exitY=0.5;exitDx=0;exitDy=0;" parent="1" source="19" target="37" edge="1">
                    <mxGeometry width="50" height="50" relative="1" as="geometry">
                        <mxPoint x="644.52" y="296.21" as="sourcePoint"/>
                        <mxPoint x="1162.32" y="600" as="targetPoint"/>
                    </mxGeometry>
                </mxCell>
                <mxCell id="39" value="created_at" style="ellipse;whiteSpace=wrap;html=1;" parent="1" vertex="1">
                    <mxGeometry x="717.32" y="280" width="70" height="40" as="geometry"/>
                </mxCell>
                <mxCell id="40" value="" style="endArrow=none;html=1;entryX=0.012;entryY=0.357;entryDx=0;entryDy=0;entryPerimeter=0;" parent="1" source="19" target="39" edge="1">
                    <mxGeometry width="50" height="50" relative="1" as="geometry">
                        <mxPoint x="585" y="310" as="sourcePoint"/>
                        <mxPoint x="1135" y="540" as="targetPoint"/>
                    </mxGeometry>
                </mxCell>
                <mxCell id="41" value="updated_at" style="ellipse;whiteSpace=wrap;html=1;" parent="1" vertex="1">
                    <mxGeometry x="660" y="330" width="70" height="40" as="geometry"/>
                </mxCell>
                <mxCell id="42" value="" style="endArrow=none;html=1;" parent="1" target="41" edge="1">
                    <mxGeometry width="50" height="50" relative="1" as="geometry">
                        <mxPoint x="620" y="290" as="sourcePoint"/>
                        <mxPoint x="1072.16" y="570" as="targetPoint"/>
                    </mxGeometry>
                </mxCell>
                <mxCell id="44" value="Meals" style="rounded=0;whiteSpace=wrap;html=1;" parent="1" vertex="1">
                    <mxGeometry x="-409.5300000000001" y="910" width="120" height="60" as="geometry"/>
                </mxCell>
                <mxCell id="45" value="meal_id" style="ellipse;whiteSpace=wrap;html=1;fontStyle=4" parent="1" vertex="1">
                    <mxGeometry x="-499.5300000000001" y="820" width="60" height="40" as="geometry"/>
                </mxCell>
                <mxCell id="46" value="" style="endArrow=none;html=1;entryX=0.25;entryY=0;entryDx=0;entryDy=0;exitX=0.5;exitY=1;exitDx=0;exitDy=0;" parent="1" source="45" target="44" edge="1">
                    <mxGeometry width="50" height="50" relative="1" as="geometry">
                        <mxPoint x="-389.5300000000001" y="1050" as="sourcePoint"/>
                        <mxPoint x="-339.5300000000001" y="1000" as="targetPoint"/>
                    </mxGeometry>
                </mxCell>
                <mxCell id="47" value="name" style="ellipse;whiteSpace=wrap;html=1;" parent="1" vertex="1">
                    <mxGeometry x="-449.5300000000001" y="760" width="60" height="40" as="geometry"/>
                </mxCell>
                <mxCell id="48" value="" style="endArrow=none;html=1;entryX=0.379;entryY=0.007;entryDx=0;entryDy=0;exitX=0.5;exitY=1;exitDx=0;exitDy=0;entryPerimeter=0;" parent="1" source="47" target="44" edge="1">
                    <mxGeometry width="50" height="50" relative="1" as="geometry">
                        <mxPoint x="-389.5300000000001" y="1050" as="sourcePoint"/>
                        <mxPoint x="-339.5300000000001" y="1000" as="targetPoint"/>
                    </mxGeometry>
                </mxCell>
                <mxCell id="49" value="calories" style="ellipse;whiteSpace=wrap;html=1;" parent="1" vertex="1">
                    <mxGeometry x="-379.5300000000001" y="740" width="60" height="40" as="geometry"/>
                </mxCell>
                <mxCell id="50" value="" style="endArrow=none;html=1;exitX=0.5;exitY=0;exitDx=0;exitDy=0;entryX=0.5;entryY=1;entryDx=0;entryDy=0;" parent="1" source="44" target="49" edge="1">
                    <mxGeometry width="50" height="50" relative="1" as="geometry">
                        <mxPoint x="40.470000000000056" y="1040" as="sourcePoint"/>
                        <mxPoint x="90.47000000000006" y="990" as="targetPoint"/>
                    </mxGeometry>
                </mxCell>
                <mxCell id="51" value="protein" style="ellipse;whiteSpace=wrap;html=1;" parent="1" vertex="1">
                    <mxGeometry x="-339.5300000000001" y="780" width="70" height="40" as="geometry"/>
                </mxCell>
                <mxCell id="52" value="" style="endArrow=none;html=1;entryX=0.5;entryY=1;entryDx=0;entryDy=0;" parent="1" target="51" edge="1">
                    <mxGeometry width="50" height="50" relative="1" as="geometry">
                        <mxPoint x="-339.5300000000001" y="910" as="sourcePoint"/>
                        <mxPoint x="120.47000000000006" y="990" as="targetPoint"/>
                    </mxGeometry>
                </mxCell>
                <mxCell id="53" value="carbohydrates&lt;br&gt;" style="ellipse;whiteSpace=wrap;html=1;" parent="1" vertex="1">
                    <mxGeometry x="-219.53000000000006" y="780" width="110" height="40" as="geometry"/>
                </mxCell>
                <mxCell id="54" value="" style="endArrow=none;html=1;entryX=0;entryY=0.5;entryDx=0;entryDy=0;" parent="1" target="53" edge="1">
                    <mxGeometry width="50" height="50" relative="1" as="geometry">
                        <mxPoint x="-299.5300000000001" y="910" as="sourcePoint"/>
                        <mxPoint x="220.47000000000006" y="1070" as="targetPoint"/>
                    </mxGeometry>
                </mxCell>
                <mxCell id="55" value="fats" style="ellipse;whiteSpace=wrap;html=1;" parent="1" vertex="1">
                    <mxGeometry x="-209.53000000000006" y="840" width="60" height="40" as="geometry"/>
                </mxCell>
                <mxCell id="56" value="" style="endArrow=none;html=1;entryX=0;entryY=0.5;entryDx=0;entryDy=0;" parent="1" source="44" target="55" edge="1">
                    <mxGeometry width="50" height="50" relative="1" as="geometry">
                        <mxPoint x="-219.53000000000006" y="1030" as="sourcePoint"/>
                        <mxPoint x="220.47000000000006" y="1110" as="targetPoint"/>
                    </mxGeometry>
                </mxCell>
                <mxCell id="57" value="meal_type" style="ellipse;whiteSpace=wrap;html=1;" parent="1" vertex="1">
                    <mxGeometry x="-202.03000000000006" y="890" width="72.5" height="40" as="geometry"/>
                </mxCell>
                <mxCell id="58" value="" style="endArrow=none;html=1;entryX=0;entryY=0.5;entryDx=0;entryDy=0;exitX=1;exitY=0.25;exitDx=0;exitDy=0;" parent="1" source="44" target="57" edge="1">
                    <mxGeometry width="50" height="50" relative="1" as="geometry">
                        <mxPoint x="-289.5300000000004" y="960" as="sourcePoint"/>
                        <mxPoint x="227.97000000000006" y="1160" as="targetPoint"/>
                    </mxGeometry>
                </mxCell>
                <mxCell id="59" value="ingredients" style="ellipse;whiteSpace=wrap;html=1;" parent="1" vertex="1">
                    <mxGeometry x="-172.97000000000006" y="1005" width="72.5" height="40" as="geometry"/>
                </mxCell>
                <mxCell id="60" value="" style="endArrow=none;html=1;entryX=0;entryY=0.5;entryDx=0;entryDy=0;exitX=1.004;exitY=0.64;exitDx=0;exitDy=0;exitPerimeter=0;" parent="1" source="44" target="59" edge="1">
                    <mxGeometry width="50" height="50" relative="1" as="geometry">
                        <mxPoint x="-289.53" y="974.9999999999999" as="sourcePoint"/>
                        <mxPoint x="227.97000000000006" y="1210" as="targetPoint"/>
                    </mxGeometry>
                </mxCell>
                <mxCell id="61" value="instructions" style="ellipse;whiteSpace=wrap;html=1;" parent="1" vertex="1">
                    <mxGeometry x="-269.5300000000001" y="1025" width="72.5" height="40" as="geometry"/>
                </mxCell>
                <mxCell id="62" value="" style="endArrow=none;html=1;entryX=0;entryY=0.5;entryDx=0;entryDy=0;exitX=1.001;exitY=0.862;exitDx=0;exitDy=0;exitPerimeter=0;" parent="1" source="44" target="61" edge="1">
                    <mxGeometry width="50" height="50" relative="1" as="geometry">
                        <mxPoint x="-289.53" y="998.4" as="sourcePoint"/>
                        <mxPoint x="227.49000000000004" y="1260" as="targetPoint"/>
                    </mxGeometry>
                </mxCell>
                <mxCell id="63" value="Workouts" style="rounded=0;whiteSpace=wrap;html=1;" parent="1" vertex="1">
                    <mxGeometry x="-750.0000000000002" y="725" width="120" height="60" as="geometry"/>
                </mxCell>
                <mxCell id="64" value="workout_id" style="ellipse;whiteSpace=wrap;html=1;fontStyle=4" parent="1" vertex="1">
                    <mxGeometry x="-860.0000000000002" y="645" width="80" height="35" as="geometry"/>
                </mxCell>
                <mxCell id="65" value="" style="endArrow=none;html=1;entryX=0.25;entryY=0;entryDx=0;entryDy=0;exitX=0.5;exitY=1;exitDx=0;exitDy=0;" parent="1" source="64" target="63" edge="1">
                    <mxGeometry width="50" height="50" relative="1" as="geometry">
                        <mxPoint x="-730.0000000000002" y="865" as="sourcePoint"/>
                        <mxPoint x="-680.0000000000002" y="815" as="targetPoint"/>
                    </mxGeometry>
                </mxCell>
                <mxCell id="66" value="name" style="ellipse;whiteSpace=wrap;html=1;" parent="1" vertex="1">
                    <mxGeometry x="-810.0000000000002" y="580" width="60" height="40" as="geometry"/>
                </mxCell>
                <mxCell id="67" value="" style="endArrow=none;html=1;entryX=0.379;entryY=0.007;entryDx=0;entryDy=0;exitX=0.5;exitY=1;exitDx=0;exitDy=0;entryPerimeter=0;" parent="1" source="66" target="63" edge="1">
                    <mxGeometry width="50" height="50" relative="1" as="geometry">
                        <mxPoint x="-730.0000000000002" y="865" as="sourcePoint"/>
                        <mxPoint x="-680.0000000000002" y="815" as="targetPoint"/>
                    </mxGeometry>
                </mxCell>
                <mxCell id="68" value="category" style="ellipse;whiteSpace=wrap;html=1;" parent="1" vertex="1">
                    <mxGeometry x="-750.0000000000002" y="550" width="60" height="40" as="geometry"/>
                </mxCell>
                <mxCell id="69" value="" style="endArrow=none;html=1;exitX=0.5;exitY=0;exitDx=0;exitDy=0;entryX=0.5;entryY=1;entryDx=0;entryDy=0;" parent="1" source="63" target="68" edge="1">
                    <mxGeometry width="50" height="50" relative="1" as="geometry">
                        <mxPoint x="-300.00000000000017" y="855" as="sourcePoint"/>
                        <mxPoint x="-250.00000000000017" y="805" as="targetPoint"/>
                    </mxGeometry>
                </mxCell>
                <mxCell id="70" value="duration" style="ellipse;whiteSpace=wrap;html=1;" parent="1" vertex="1">
                    <mxGeometry x="-679.0600000000001" y="520" width="70" height="40" as="geometry"/>
                </mxCell>
                <mxCell id="71" value="" style="endArrow=none;html=1;entryX=0.5;entryY=1;entryDx=0;entryDy=0;" parent="1" target="70" edge="1">
                    <mxGeometry width="50" height="50" relative="1" as="geometry">
                        <mxPoint x="-680.0000000000002" y="725" as="sourcePoint"/>
                        <mxPoint x="-220.00000000000017" y="805" as="targetPoint"/>
                    </mxGeometry>
                </mxCell>
                <mxCell id="72" value="difficulty" style="ellipse;whiteSpace=wrap;html=1;" parent="1" vertex="1">
                    <mxGeometry x="-635.3600000000001" y="570" width="72.68" height="40" as="geometry"/>
                </mxCell>
                <mxCell id="73" value="" style="endArrow=none;html=1;exitX=0.75;exitY=0;exitDx=0;exitDy=0;" parent="1" source="63" target="72" edge="1">
                    <mxGeometry width="50" height="50" relative="1" as="geometry">
                        <mxPoint x="-640.0000000000002" y="725" as="sourcePoint"/>
                        <mxPoint x="-120.00000000000017" y="885" as="targetPoint"/>
                    </mxGeometry>
                </mxCell>
                <mxCell id="74" value="calories_burned" style="ellipse;whiteSpace=wrap;html=1;" parent="1" vertex="1">
                    <mxGeometry x="-582.6800000000001" y="620" width="102.68" height="45" as="geometry"/>
                </mxCell>
                <mxCell id="75" value="" style="endArrow=none;html=1;entryX=0;entryY=0.5;entryDx=0;entryDy=0;" parent="1" source="63" target="74" edge="1">
                    <mxGeometry width="50" height="50" relative="1" as="geometry">
                        <mxPoint x="-560.0000000000002" y="845" as="sourcePoint"/>
                        <mxPoint x="-120.00000000000017" y="925" as="targetPoint"/>
                    </mxGeometry>
                </mxCell>
                <mxCell id="76" value="instructions" style="ellipse;whiteSpace=wrap;html=1;" parent="1" vertex="1">
                    <mxGeometry x="-600.0000000000002" y="675" width="72.5" height="40" as="geometry"/>
                </mxCell>
                <mxCell id="77" value="" style="endArrow=none;html=1;entryX=0;entryY=0.5;entryDx=0;entryDy=0;exitX=1;exitY=0.25;exitDx=0;exitDy=0;" parent="1" source="63" target="76" edge="1">
                    <mxGeometry width="50" height="50" relative="1" as="geometry">
                        <mxPoint x="-630.0000000000005" y="775" as="sourcePoint"/>
                        <mxPoint x="-112.50000000000017" y="975" as="targetPoint"/>
                    </mxGeometry>
                </mxCell>
                <mxCell id="84" value="Exercises" style="rounded=0;whiteSpace=wrap;html=1;" parent="1" vertex="1">
                    <mxGeometry x="-1150" y="1020" width="120" height="60" as="geometry"/>
                </mxCell>
                <mxCell id="85" value="exercise_id" style="ellipse;whiteSpace=wrap;html=1;fontStyle=4" parent="1" vertex="1">
                    <mxGeometry x="-1250" y="931" width="70" height="40" as="geometry"/>
                </mxCell>
                <mxCell id="86" value="" style="endArrow=none;html=1;entryX=0.25;entryY=0;entryDx=0;entryDy=0;exitX=0.5;exitY=1;exitDx=0;exitDy=0;" parent="1" source="85" target="84" edge="1">
                    <mxGeometry width="50" height="50" relative="1" as="geometry">
                        <mxPoint x="-1130" y="1160" as="sourcePoint"/>
                        <mxPoint x="-1080" y="1110" as="targetPoint"/>
                    </mxGeometry>
                </mxCell>
                <mxCell id="87" value="workout_id" style="ellipse;whiteSpace=wrap;html=1;" parent="1" vertex="1">
                    <mxGeometry x="-1210" y="870" width="80" height="40" as="geometry"/>
                </mxCell>
                <mxCell id="88" value="" style="endArrow=none;html=1;entryX=0.379;entryY=0.007;entryDx=0;entryDy=0;exitX=0.5;exitY=1;exitDx=0;exitDy=0;entryPerimeter=0;" parent="1" source="87" target="84" edge="1">
                    <mxGeometry width="50" height="50" relative="1" as="geometry">
                        <mxPoint x="-1130" y="1160" as="sourcePoint"/>
                        <mxPoint x="-1080" y="1110" as="targetPoint"/>
                    </mxGeometry>
                </mxCell>
                <mxCell id="89" value="name" style="ellipse;whiteSpace=wrap;html=1;" parent="1" vertex="1">
                    <mxGeometry x="-1120" y="850" width="60" height="40" as="geometry"/>
                </mxCell>
                <mxCell id="90" value="" style="endArrow=none;html=1;exitX=0.5;exitY=0;exitDx=0;exitDy=0;entryX=0.5;entryY=1;entryDx=0;entryDy=0;" parent="1" source="84" target="89" edge="1">
                    <mxGeometry width="50" height="50" relative="1" as="geometry">
                        <mxPoint x="-700" y="1150" as="sourcePoint"/>
                        <mxPoint x="-650" y="1100" as="targetPoint"/>
                    </mxGeometry>
                </mxCell>
                <mxCell id="91" value="reps" style="ellipse;whiteSpace=wrap;html=1;" parent="1" vertex="1">
                    <mxGeometry x="-1080" y="890" width="70" height="40" as="geometry"/>
                </mxCell>
                <mxCell id="92" value="" style="endArrow=none;html=1;entryX=0.5;entryY=1;entryDx=0;entryDy=0;" parent="1" target="91" edge="1">
                    <mxGeometry width="50" height="50" relative="1" as="geometry">
                        <mxPoint x="-1080" y="1020" as="sourcePoint"/>
                        <mxPoint x="-620" y="1100" as="targetPoint"/>
                    </mxGeometry>
                </mxCell>
                <mxCell id="93" value="" style="endArrow=none;html=1;entryX=0;entryY=0.5;entryDx=0;entryDy=0;" parent="1" edge="1">
                    <mxGeometry width="50" height="50" relative="1" as="geometry">
                        <mxPoint x="-1040" y="1020" as="sourcePoint"/>
                        <mxPoint x="-959.9999999999999" y="910" as="targetPoint"/>
                    </mxGeometry>
                </mxCell>
                <mxCell id="94" value="sets" style="ellipse;whiteSpace=wrap;html=1;" parent="1" vertex="1">
                    <mxGeometry x="-950" y="950" width="60" height="40" as="geometry"/>
                </mxCell>
                <mxCell id="95" value="" style="endArrow=none;html=1;entryX=0;entryY=0.5;entryDx=0;entryDy=0;" parent="1" source="84" target="94" edge="1">
                    <mxGeometry width="50" height="50" relative="1" as="geometry">
                        <mxPoint x="-960" y="1140" as="sourcePoint"/>
                        <mxPoint x="-520" y="1220" as="targetPoint"/>
                    </mxGeometry>
                </mxCell>
                <mxCell id="96" value="duration_per_set" style="ellipse;whiteSpace=wrap;html=1;" parent="1" vertex="1">
                    <mxGeometry x="-920" y="1020" width="102.5" height="40" as="geometry"/>
                </mxCell>
                <mxCell id="97" value="" style="endArrow=none;html=1;entryX=0;entryY=0.5;entryDx=0;entryDy=0;exitX=1;exitY=0.25;exitDx=0;exitDy=0;" parent="1" source="84" target="96" edge="1">
                    <mxGeometry width="50" height="50" relative="1" as="geometry">
                        <mxPoint x="-1030.0000000000002" y="1070" as="sourcePoint"/>
                        <mxPoint x="-512.5" y="1270" as="targetPoint"/>
                    </mxGeometry>
                </mxCell>
                <mxCell id="98" value="rest_time" style="ellipse;whiteSpace=wrap;html=1;" parent="1" vertex="1">
                    <mxGeometry x="-942.5" y="1080" width="72.5" height="40" as="geometry"/>
                </mxCell>
                <mxCell id="99" value="" style="endArrow=none;html=1;entryX=0;entryY=0.5;entryDx=0;entryDy=0;exitX=1.004;exitY=0.64;exitDx=0;exitDy=0;exitPerimeter=0;" parent="1" source="84" target="98" edge="1">
                    <mxGeometry width="50" height="50" relative="1" as="geometry">
                        <mxPoint x="-1030" y="1085" as="sourcePoint"/>
                        <mxPoint x="-512.5" y="1320" as="targetPoint"/>
                    </mxGeometry>
                </mxCell>
                <mxCell id="100" value="muscle_group" style="ellipse;whiteSpace=wrap;html=1;" parent="1" vertex="1">
                    <mxGeometry x="-950" y="1150" width="82.98" height="40" as="geometry"/>
                </mxCell>
                <mxCell id="101" value="" style="endArrow=none;html=1;entryX=0;entryY=0.5;entryDx=0;entryDy=0;exitX=1.001;exitY=0.862;exitDx=0;exitDy=0;exitPerimeter=0;" parent="1" source="84" target="100" edge="1">
                    <mxGeometry width="50" height="50" relative="1" as="geometry">
                        <mxPoint x="-1030" y="1108.4" as="sourcePoint"/>
                        <mxPoint x="-512.98" y="1370" as="targetPoint"/>
                    </mxGeometry>
                </mxCell>
                <mxCell id="103" value="instructions" style="ellipse;whiteSpace=wrap;html=1;" parent="1" vertex="1">
                    <mxGeometry x="-1000" y="890" width="90" height="35" as="geometry"/>
                </mxCell>
                <mxCell id="104" value="Workout_logs" style="rounded=0;whiteSpace=wrap;html=1;" parent="1" vertex="1">
                    <mxGeometry x="15.980000000000018" y="475" width="120" height="60" as="geometry"/>
                </mxCell>
                <mxCell id="105" value="log_id" style="ellipse;whiteSpace=wrap;html=1;" parent="1" vertex="1">
                    <mxGeometry x="-84.01999999999998" y="386" width="70" height="40" as="geometry"/>
                </mxCell>
                <mxCell id="106" value="" style="endArrow=none;html=1;entryX=0.25;entryY=0;entryDx=0;entryDy=0;exitX=0.5;exitY=1;exitDx=0;exitDy=0;" parent="1" source="105" target="104" edge="1">
                    <mxGeometry width="50" height="50" relative="1" as="geometry">
                        <mxPoint x="35.98000000000002" y="615" as="sourcePoint"/>
                        <mxPoint x="85.98000000000002" y="565" as="targetPoint"/>
                    </mxGeometry>
                </mxCell>
                <mxCell id="107" value="user_id" style="ellipse;whiteSpace=wrap;html=1;" parent="1" vertex="1">
                    <mxGeometry x="-44.01999999999998" y="325" width="80" height="40" as="geometry"/>
                </mxCell>
                <mxCell id="108" value="" style="endArrow=none;html=1;entryX=0.379;entryY=0.007;entryDx=0;entryDy=0;exitX=0.5;exitY=1;exitDx=0;exitDy=0;entryPerimeter=0;" parent="1" source="107" target="104" edge="1">
                    <mxGeometry width="50" height="50" relative="1" as="geometry">
                        <mxPoint x="35.98000000000002" y="615" as="sourcePoint"/>
                        <mxPoint x="85.98000000000002" y="565" as="targetPoint"/>
                    </mxGeometry>
                </mxCell>
                <mxCell id="109" value="workout_id" style="ellipse;whiteSpace=wrap;html=1;" parent="1" vertex="1">
                    <mxGeometry x="45.98000000000002" y="305" width="60" height="40" as="geometry"/>
                </mxCell>
                <mxCell id="110" value="" style="endArrow=none;html=1;exitX=0.5;exitY=0;exitDx=0;exitDy=0;entryX=0.5;entryY=1;entryDx=0;entryDy=0;" parent="1" source="104" target="109" edge="1">
                    <mxGeometry width="50" height="50" relative="1" as="geometry">
                        <mxPoint x="465.98" y="605" as="sourcePoint"/>
                        <mxPoint x="515.98" y="555" as="targetPoint"/>
                    </mxGeometry>
                </mxCell>
                <mxCell id="111" value="date" style="ellipse;whiteSpace=wrap;html=1;" parent="1" vertex="1">
                    <mxGeometry x="85.98000000000002" y="345" width="70" height="40" as="geometry"/>
                </mxCell>
                <mxCell id="112" value="" style="endArrow=none;html=1;entryX=0.5;entryY=1;entryDx=0;entryDy=0;" parent="1" target="111" edge="1">
                    <mxGeometry width="50" height="50" relative="1" as="geometry">
                        <mxPoint x="85.98000000000002" y="475" as="sourcePoint"/>
                        <mxPoint x="545.98" y="555" as="targetPoint"/>
                    </mxGeometry>
                </mxCell>
                <mxCell id="113" value="" style="endArrow=none;html=1;entryX=0;entryY=0.5;entryDx=0;entryDy=0;" parent="1" edge="1" target="122">
                    <mxGeometry width="50" height="50" relative="1" as="geometry">
                        <mxPoint x="125.98000000000002" y="475" as="sourcePoint"/>
                        <mxPoint x="205.98000000000002" y="365" as="targetPoint"/>
                    </mxGeometry>
                </mxCell>
                <mxCell id="114" value="calories_burned" style="ellipse;whiteSpace=wrap;html=1;" parent="1" vertex="1">
                    <mxGeometry x="235.98000000000002" y="470" width="114.02" height="40" as="geometry"/>
                </mxCell>
                <mxCell id="115" value="" style="endArrow=none;html=1;entryX=0;entryY=0.5;entryDx=0;entryDy=0;" parent="1" source="104" target="114" edge="1">
                    <mxGeometry width="50" height="50" relative="1" as="geometry">
                        <mxPoint x="205.98000000000002" y="595" as="sourcePoint"/>
                        <mxPoint x="645.98" y="675" as="targetPoint"/>
                    </mxGeometry>
                </mxCell>
                <mxCell id="116" value="notes" style="ellipse;whiteSpace=wrap;html=1;" parent="1" vertex="1">
                    <mxGeometry x="227.50000000000003" y="520" width="102.5" height="40" as="geometry"/>
                </mxCell>
                <mxCell id="117" value="" style="endArrow=none;html=1;entryX=0;entryY=0.5;entryDx=0;entryDy=0;exitX=1;exitY=0.25;exitDx=0;exitDy=0;" parent="1" source="104" target="116" edge="1">
                    <mxGeometry width="50" height="50" relative="1" as="geometry">
                        <mxPoint x="135.9799999999998" y="525" as="sourcePoint"/>
                        <mxPoint x="653.48" y="725" as="targetPoint"/>
                    </mxGeometry>
                </mxCell>
                <mxCell id="122" value="duration" style="ellipse;whiteSpace=wrap;html=1;" parent="1" vertex="1">
                    <mxGeometry x="227.50000000000003" y="405" width="90" height="35" as="geometry"/>
                </mxCell>
                <mxCell id="125" value="Meal_logs" style="rounded=0;whiteSpace=wrap;html=1;" parent="1" vertex="1">
                    <mxGeometry x="35" y="810" width="120" height="60" as="geometry"/>
                </mxCell>
                <mxCell id="126" value="log_id" style="ellipse;whiteSpace=wrap;html=1;fontStyle=4" parent="1" vertex="1">
                    <mxGeometry x="-65" y="721" width="70" height="40" as="geometry"/>
                </mxCell>
                <mxCell id="127" value="" style="endArrow=none;html=1;entryX=0.25;entryY=0;entryDx=0;entryDy=0;exitX=0.5;exitY=1;exitDx=0;exitDy=0;" parent="1" source="126" target="125" edge="1">
                    <mxGeometry width="50" height="50" relative="1" as="geometry">
                        <mxPoint x="55" y="950" as="sourcePoint"/>
                        <mxPoint x="105" y="900" as="targetPoint"/>
                    </mxGeometry>
                </mxCell>
                <mxCell id="128" value="user_id" style="ellipse;whiteSpace=wrap;html=1;" parent="1" vertex="1">
                    <mxGeometry x="-25" y="660" width="80" height="40" as="geometry"/>
                </mxCell>
                <mxCell id="129" value="" style="endArrow=none;html=1;entryX=0.379;entryY=0.007;entryDx=0;entryDy=0;exitX=0.5;exitY=1;exitDx=0;exitDy=0;entryPerimeter=0;" parent="1" source="128" target="125" edge="1">
                    <mxGeometry width="50" height="50" relative="1" as="geometry">
                        <mxPoint x="55" y="950" as="sourcePoint"/>
                        <mxPoint x="105" y="900" as="targetPoint"/>
                    </mxGeometry>
                </mxCell>
                <mxCell id="130" value="meal_id" style="ellipse;whiteSpace=wrap;html=1;" parent="1" vertex="1">
                    <mxGeometry x="65" y="640" width="60" height="40" as="geometry"/>
                </mxCell>
                <mxCell id="131" value="" style="endArrow=none;html=1;exitX=0.5;exitY=0;exitDx=0;exitDy=0;entryX=0.5;entryY=1;entryDx=0;entryDy=0;" parent="1" source="125" target="130" edge="1">
                    <mxGeometry width="50" height="50" relative="1" as="geometry">
                        <mxPoint x="485" y="940" as="sourcePoint"/>
                        <mxPoint x="535" y="890" as="targetPoint"/>
                    </mxGeometry>
                </mxCell>
                <mxCell id="132" value="date" style="ellipse;whiteSpace=wrap;html=1;" parent="1" vertex="1">
                    <mxGeometry x="105" y="680" width="70" height="40" as="geometry"/>
                </mxCell>
                <mxCell id="133" value="" style="endArrow=none;html=1;entryX=0.5;entryY=1;entryDx=0;entryDy=0;" parent="1" target="132" edge="1">
                    <mxGeometry width="50" height="50" relative="1" as="geometry">
                        <mxPoint x="105" y="810" as="sourcePoint"/>
                        <mxPoint x="565" y="890" as="targetPoint"/>
                    </mxGeometry>
                </mxCell>
                <mxCell id="134" value="" style="endArrow=none;html=1;entryX=0;entryY=1;entryDx=0;entryDy=0;" parent="1" edge="1" target="143">
                    <mxGeometry width="50" height="50" relative="1" as="geometry">
                        <mxPoint x="145" y="810" as="sourcePoint"/>
                        <mxPoint x="225.0000000000001" y="700" as="targetPoint"/>
                    </mxGeometry>
                </mxCell>
                <mxCell id="135" value="serving_size" style="ellipse;whiteSpace=wrap;html=1;" parent="1" vertex="1">
                    <mxGeometry x="235" y="740" width="100" height="40" as="geometry"/>
                </mxCell>
                <mxCell id="136" value="" style="endArrow=none;html=1;entryX=0;entryY=0.5;entryDx=0;entryDy=0;" parent="1" source="125" target="135" edge="1">
                    <mxGeometry width="50" height="50" relative="1" as="geometry">
                        <mxPoint x="225" y="930" as="sourcePoint"/>
                        <mxPoint x="665" y="1010" as="targetPoint"/>
                    </mxGeometry>
                </mxCell>
                <mxCell id="137" value="total_calories" style="ellipse;whiteSpace=wrap;html=1;" parent="1" vertex="1">
                    <mxGeometry x="242.5" y="790" width="102.5" height="40" as="geometry"/>
                </mxCell>
                <mxCell id="138" value="" style="endArrow=none;html=1;entryX=0;entryY=0.5;entryDx=0;entryDy=0;exitX=1;exitY=0.25;exitDx=0;exitDy=0;" parent="1" source="125" target="137" edge="1">
                    <mxGeometry width="50" height="50" relative="1" as="geometry">
                        <mxPoint x="154.99999999999972" y="860" as="sourcePoint"/>
                        <mxPoint x="672.5" y="1060" as="targetPoint"/>
                    </mxGeometry>
                </mxCell>
                <mxCell id="139" value="notes" style="ellipse;whiteSpace=wrap;html=1;" parent="1" vertex="1">
                    <mxGeometry x="242.5" y="840" width="72.5" height="40" as="geometry"/>
                </mxCell>
                <mxCell id="140" value="" style="endArrow=none;html=1;entryX=0;entryY=0.5;entryDx=0;entryDy=0;exitX=1.004;exitY=0.64;exitDx=0;exitDy=0;exitPerimeter=0;" parent="1" source="125" target="139" edge="1">
                    <mxGeometry width="50" height="50" relative="1" as="geometry">
                        <mxPoint x="155.00000000000006" y="875" as="sourcePoint"/>
                        <mxPoint x="672.5" y="1110" as="targetPoint"/>
                    </mxGeometry>
                </mxCell>
                <mxCell id="143" value="time" style="ellipse;whiteSpace=wrap;html=1;" parent="1" vertex="1">
                    <mxGeometry x="260" y="680" width="90" height="35" as="geometry"/>
                </mxCell>
                <mxCell id="145" value="Progress_tracking" style="rounded=0;whiteSpace=wrap;html=1;" parent="1" vertex="1">
                    <mxGeometry x="509.99999999999994" y="770" width="120" height="60" as="geometry"/>
                </mxCell>
                <mxCell id="146" value="&lt;u&gt;progress_id&lt;/u&gt;" style="ellipse;whiteSpace=wrap;html=1;" parent="1" vertex="1">
                    <mxGeometry x="409.99999999999994" y="681" width="70" height="40" as="geometry"/>
                </mxCell>
                <mxCell id="147" value="" style="endArrow=none;html=1;entryX=0.25;entryY=0;entryDx=0;entryDy=0;exitX=0.5;exitY=1;exitDx=0;exitDy=0;" parent="1" source="146" target="145" edge="1">
                    <mxGeometry width="50" height="50" relative="1" as="geometry">
                        <mxPoint x="530" y="910" as="sourcePoint"/>
                        <mxPoint x="580" y="860" as="targetPoint"/>
                    </mxGeometry>
                </mxCell>
                <mxCell id="148" value="user_id" style="ellipse;whiteSpace=wrap;html=1;" parent="1" vertex="1">
                    <mxGeometry x="449.99999999999994" y="620" width="80" height="40" as="geometry"/>
                </mxCell>
                <mxCell id="149" value="" style="endArrow=none;html=1;entryX=0.379;entryY=0.007;entryDx=0;entryDy=0;exitX=0.5;exitY=1;exitDx=0;exitDy=0;entryPerimeter=0;" parent="1" source="148" target="145" edge="1">
                    <mxGeometry width="50" height="50" relative="1" as="geometry">
                        <mxPoint x="530" y="910" as="sourcePoint"/>
                        <mxPoint x="580" y="860" as="targetPoint"/>
                    </mxGeometry>
                </mxCell>
                <mxCell id="150" value="date" style="ellipse;whiteSpace=wrap;html=1;" parent="1" vertex="1">
                    <mxGeometry x="540" y="600" width="60" height="40" as="geometry"/>
                </mxCell>
                <mxCell id="151" value="" style="endArrow=none;html=1;exitX=0.5;exitY=0;exitDx=0;exitDy=0;entryX=0.5;entryY=1;entryDx=0;entryDy=0;" parent="1" source="145" target="150" edge="1">
                    <mxGeometry width="50" height="50" relative="1" as="geometry">
                        <mxPoint x="960" y="900" as="sourcePoint"/>
                        <mxPoint x="1010" y="850" as="targetPoint"/>
                    </mxGeometry>
                </mxCell>
                <mxCell id="152" value="weight" style="ellipse;whiteSpace=wrap;html=1;" parent="1" vertex="1">
                    <mxGeometry x="580" y="640" width="70" height="40" as="geometry"/>
                </mxCell>
                <mxCell id="153" value="" style="endArrow=none;html=1;entryX=0.5;entryY=1;entryDx=0;entryDy=0;" parent="1" target="152" edge="1">
                    <mxGeometry width="50" height="50" relative="1" as="geometry">
                        <mxPoint x="580" y="770" as="sourcePoint"/>
                        <mxPoint x="1040" y="850" as="targetPoint"/>
                    </mxGeometry>
                </mxCell>
                <mxCell id="154" value="" style="endArrow=none;html=1;entryX=0;entryY=0.5;entryDx=0;entryDy=0;" parent="1" edge="1" target="163">
                    <mxGeometry width="50" height="50" relative="1" as="geometry">
                        <mxPoint x="620" y="770" as="sourcePoint"/>
                        <mxPoint x="768.8084077343331" y="674.6884743489682" as="targetPoint"/>
                    </mxGeometry>
                </mxCell>
                <mxCell id="155" value="BMI" style="ellipse;whiteSpace=wrap;html=1;" parent="1" vertex="1">
                    <mxGeometry x="710" y="700" width="60" height="40" as="geometry"/>
                </mxCell>
                <mxCell id="156" value="" style="endArrow=none;html=1;entryX=0;entryY=0.5;entryDx=0;entryDy=0;" parent="1" source="145" target="155" edge="1">
                    <mxGeometry width="50" height="50" relative="1" as="geometry">
                        <mxPoint x="700" y="890" as="sourcePoint"/>
                        <mxPoint x="1140" y="970" as="targetPoint"/>
                    </mxGeometry>
                </mxCell>
                <mxCell id="157" value="muscle_mass" style="ellipse;whiteSpace=wrap;html=1;" parent="1" vertex="1">
                    <mxGeometry x="717.5" y="750" width="102.5" height="40" as="geometry"/>
                </mxCell>
                <mxCell id="158" value="" style="endArrow=none;html=1;entryX=0;entryY=0.5;entryDx=0;entryDy=0;exitX=1;exitY=0.25;exitDx=0;exitDy=0;" parent="1" source="145" target="157" edge="1">
                    <mxGeometry width="50" height="50" relative="1" as="geometry">
                        <mxPoint x="629.9999999999998" y="820" as="sourcePoint"/>
                        <mxPoint x="1147.5" y="1020" as="targetPoint"/>
                    </mxGeometry>
                </mxCell>
                <mxCell id="159" value="notes" style="ellipse;whiteSpace=wrap;html=1;" parent="1" vertex="1">
                    <mxGeometry x="717.5" y="800" width="72.5" height="40" as="geometry"/>
                </mxCell>
                <mxCell id="160" value="" style="endArrow=none;html=1;entryX=0;entryY=0.5;entryDx=0;entryDy=0;exitX=1.004;exitY=0.64;exitDx=0;exitDy=0;exitPerimeter=0;" parent="1" source="145" target="159" edge="1">
                    <mxGeometry width="50" height="50" relative="1" as="geometry">
                        <mxPoint x="630" y="835" as="sourcePoint"/>
                        <mxPoint x="1147.5" y="1070" as="targetPoint"/>
                    </mxGeometry>
                </mxCell>
                <mxCell id="163" value="body_fat_percentage" style="ellipse;whiteSpace=wrap;html=1;" parent="1" vertex="1">
                    <mxGeometry x="732.0899999999999" y="646" width="142.68" height="35" as="geometry"/>
                </mxCell>
                <mxCell id="164" value="Notification" style="rounded=0;whiteSpace=wrap;html=1;" vertex="1" parent="1">
                    <mxGeometry x="-400.0000000000001" y="240" width="120" height="60" as="geometry"/>
                </mxCell>
                <mxCell id="165" value="notification_id" style="ellipse;whiteSpace=wrap;html=1;fontStyle=4" vertex="1" parent="1">
                    <mxGeometry x="-520" y="150" width="100" height="40" as="geometry"/>
                </mxCell>
                <mxCell id="166" value="" style="endArrow=none;html=1;entryX=0.25;entryY=0;entryDx=0;entryDy=0;exitX=0.5;exitY=1;exitDx=0;exitDy=0;" edge="1" parent="1" source="165" target="164">
                    <mxGeometry width="50" height="50" relative="1" as="geometry">
                        <mxPoint x="-380.0000000000001" y="380" as="sourcePoint"/>
                        <mxPoint x="-330.0000000000001" y="330" as="targetPoint"/>
                    </mxGeometry>
                </mxCell>
                <mxCell id="167" value="user_id" style="ellipse;whiteSpace=wrap;html=1;" vertex="1" parent="1">
                    <mxGeometry x="-460.0000000000001" y="90" width="80" height="40" as="geometry"/>
                </mxCell>
                <mxCell id="168" value="" style="endArrow=none;html=1;entryX=0.379;entryY=0.007;entryDx=0;entryDy=0;exitX=0.5;exitY=1;exitDx=0;exitDy=0;entryPerimeter=0;" edge="1" parent="1" source="167" target="164">
                    <mxGeometry width="50" height="50" relative="1" as="geometry">
                        <mxPoint x="-380.0000000000001" y="380" as="sourcePoint"/>
                        <mxPoint x="-330.0000000000001" y="330" as="targetPoint"/>
                    </mxGeometry>
                </mxCell>
                <mxCell id="169" value="content" style="ellipse;whiteSpace=wrap;html=1;" vertex="1" parent="1">
                    <mxGeometry x="-370" y="70" width="60" height="40" as="geometry"/>
                </mxCell>
                <mxCell id="170" value="" style="endArrow=none;html=1;exitX=0.5;exitY=0;exitDx=0;exitDy=0;entryX=0.5;entryY=1;entryDx=0;entryDy=0;" edge="1" parent="1" source="164" target="169">
                    <mxGeometry width="50" height="50" relative="1" as="geometry">
                        <mxPoint x="49.999999999999886" y="370" as="sourcePoint"/>
                        <mxPoint x="99.99999999999989" y="320" as="targetPoint"/>
                    </mxGeometry>
                </mxCell>
                <mxCell id="171" value="type" style="ellipse;whiteSpace=wrap;html=1;" vertex="1" parent="1">
                    <mxGeometry x="-330.0000000000001" y="110" width="70" height="40" as="geometry"/>
                </mxCell>
                <mxCell id="172" value="" style="endArrow=none;html=1;entryX=0.5;entryY=1;entryDx=0;entryDy=0;" edge="1" parent="1" target="171">
                    <mxGeometry width="50" height="50" relative="1" as="geometry">
                        <mxPoint x="-330.0000000000001" y="240" as="sourcePoint"/>
                        <mxPoint x="129.9999999999999" y="320" as="targetPoint"/>
                    </mxGeometry>
                </mxCell>
                <mxCell id="173" value="" style="endArrow=none;html=1;entryX=0;entryY=0.5;entryDx=0;entryDy=0;" edge="1" parent="1" target="180">
                    <mxGeometry width="50" height="50" relative="1" as="geometry">
                        <mxPoint x="-290.0000000000001" y="240" as="sourcePoint"/>
                        <mxPoint x="-209.9999999999999" y="130" as="targetPoint"/>
                    </mxGeometry>
                </mxCell>
                <mxCell id="174" value="created_at&lt;br&gt;" style="ellipse;whiteSpace=wrap;html=1;" vertex="1" parent="1">
                    <mxGeometry x="-200" y="170" width="80" height="40" as="geometry"/>
                </mxCell>
                <mxCell id="175" value="" style="endArrow=none;html=1;entryX=0;entryY=0.5;entryDx=0;entryDy=0;" edge="1" parent="1" source="164" target="174">
                    <mxGeometry width="50" height="50" relative="1" as="geometry">
                        <mxPoint x="-210.0000000000001" y="360" as="sourcePoint"/>
                        <mxPoint x="229.9999999999999" y="440" as="targetPoint"/>
                    </mxGeometry>
                </mxCell>
                <mxCell id="180" value="status" style="ellipse;whiteSpace=wrap;html=1;" vertex="1" parent="1">
                    <mxGeometry x="-230" y="115" width="60" height="35" as="geometry"/>
                </mxCell>
                <mxCell id="181" value="Activity_log" style="rounded=0;whiteSpace=wrap;html=1;" vertex="1" parent="1">
                    <mxGeometry x="-420.0000000000001" y="510" width="120" height="60" as="geometry"/>
                </mxCell>
                <mxCell id="182" value="activity_id" style="ellipse;whiteSpace=wrap;html=1;fontStyle=4" vertex="1" parent="1">
                    <mxGeometry x="-540" y="420" width="100" height="40" as="geometry"/>
                </mxCell>
                <mxCell id="183" value="" style="endArrow=none;html=1;entryX=0.25;entryY=0;entryDx=0;entryDy=0;exitX=0.5;exitY=1;exitDx=0;exitDy=0;" edge="1" parent="1" source="182" target="181">
                    <mxGeometry width="50" height="50" relative="1" as="geometry">
                        <mxPoint x="-400.0000000000001" y="650" as="sourcePoint"/>
                        <mxPoint x="-350.0000000000001" y="600" as="targetPoint"/>
                    </mxGeometry>
                </mxCell>
                <mxCell id="184" value="user_id" style="ellipse;whiteSpace=wrap;html=1;" vertex="1" parent="1">
                    <mxGeometry x="-480.0000000000001" y="360" width="80" height="40" as="geometry"/>
                </mxCell>
                <mxCell id="185" value="" style="endArrow=none;html=1;entryX=0.379;entryY=0.007;entryDx=0;entryDy=0;exitX=0.5;exitY=1;exitDx=0;exitDy=0;entryPerimeter=0;" edge="1" parent="1" source="184" target="181">
                    <mxGeometry width="50" height="50" relative="1" as="geometry">
                        <mxPoint x="-400.0000000000001" y="650" as="sourcePoint"/>
                        <mxPoint x="-350.0000000000001" y="600" as="targetPoint"/>
                    </mxGeometry>
                </mxCell>
                <mxCell id="186" value="action&lt;br&gt;" style="ellipse;whiteSpace=wrap;html=1;" vertex="1" parent="1">
                    <mxGeometry x="-390" y="340" width="60" height="40" as="geometry"/>
                </mxCell>
                <mxCell id="187" value="" style="endArrow=none;html=1;exitX=0.5;exitY=0;exitDx=0;exitDy=0;entryX=0.5;entryY=1;entryDx=0;entryDy=0;" edge="1" parent="1" source="181" target="186">
                    <mxGeometry width="50" height="50" relative="1" as="geometry">
                        <mxPoint x="29.999999999999886" y="640" as="sourcePoint"/>
                        <mxPoint x="80" y="590" as="targetPoint"/>
                    </mxGeometry>
                </mxCell>
                <mxCell id="188" value="timestamp" style="ellipse;whiteSpace=wrap;html=1;" vertex="1" parent="1">
                    <mxGeometry x="-240.0000000000001" y="400" width="70" height="40" as="geometry"/>
                </mxCell>
                <mxCell id="189" value="" style="endArrow=none;html=1;entryX=0.5;entryY=1;entryDx=0;entryDy=0;" edge="1" parent="1" target="188">
                    <mxGeometry width="50" height="50" relative="1" as="geometry">
                        <mxPoint x="-350" y="510" as="sourcePoint"/>
                        <mxPoint x="110" y="590" as="targetPoint"/>
                    </mxGeometry>
                </mxCell>
                <mxCell id="190" value="" style="endArrow=none;html=1;entryX=0;entryY=0.5;entryDx=0;entryDy=0;" edge="1" parent="1" target="193">
                    <mxGeometry width="50" height="50" relative="1" as="geometry">
                        <mxPoint x="-310" y="510" as="sourcePoint"/>
                        <mxPoint x="-230" y="400" as="targetPoint"/>
                    </mxGeometry>
                </mxCell>
                <mxCell id="193" value="details" style="ellipse;whiteSpace=wrap;html=1;" vertex="1" parent="1">
                    <mxGeometry x="-220.00000000000006" y="465" width="60" height="35" as="geometry"/>
                </mxCell>
                <mxCell id="194" value="have" style="rhombus;whiteSpace=wrap;html=1;" vertex="1" parent="1">
                    <mxGeometry x="310" y="190" width="80" height="80" as="geometry"/>
                </mxCell>
                <mxCell id="195" value="( 1, 1 )" style="endArrow=none;html=1;exitX=1;exitY=0.5;exitDx=0;exitDy=0;entryX=0;entryY=0.5;entryDx=0;entryDy=0;" edge="1" parent="1" source="2" target="194">
                    <mxGeometry width="50" height="50" relative="1" as="geometry">
                        <mxPoint x="400" y="170" as="sourcePoint"/>
                        <mxPoint x="450" y="120" as="targetPoint"/>
                    </mxGeometry>
                </mxCell>
                <mxCell id="196" value="" style="endArrow=none;html=1;exitX=0;exitY=0.5;exitDx=0;exitDy=0;entryX=1;entryY=0.5;entryDx=0;entryDy=0;" edge="1" parent="1" source="19" target="194">
                    <mxGeometry width="50" height="50" relative="1" as="geometry">
                        <mxPoint x="230" y="230" as="sourcePoint"/>
                        <mxPoint x="330" y="260" as="targetPoint"/>
                    </mxGeometry>
                </mxCell>
                <mxCell id="197" value="( 0, 1 )" style="edgeLabel;html=1;align=center;verticalAlign=middle;resizable=0;points=[];" vertex="1" connectable="0" parent="196">
                    <mxGeometry x="0.3582" y="3" relative="1" as="geometry">
                        <mxPoint as="offset"/>
                    </mxGeometry>
                </mxCell>
                <mxCell id="198" value="logs workouts" style="rhombus;whiteSpace=wrap;html=1;" vertex="1" parent="1">
                    <mxGeometry x="169" y="320" width="111" height="72.5" as="geometry"/>
                </mxCell>
                <mxCell id="199" value="( 1, N )" style="endArrow=none;html=1;exitX=0.5;exitY=0;exitDx=0;exitDy=0;" edge="1" parent="1" source="198" target="2">
                    <mxGeometry width="50" height="50" relative="1" as="geometry">
                        <mxPoint x="200" y="340" as="sourcePoint"/>
                        <mxPoint x="250" y="290" as="targetPoint"/>
                    </mxGeometry>
                </mxCell>
                <mxCell id="200" value="(0, N)" style="endArrow=none;html=1;exitX=0.5;exitY=1;exitDx=0;exitDy=0;entryX=0.75;entryY=0;entryDx=0;entryDy=0;" edge="1" parent="1">
                    <mxGeometry width="50" height="50" relative="1" as="geometry">
                        <mxPoint x="224.50000000000023" y="392.5" as="sourcePoint"/>
                        <mxPoint x="105.98000000000002" y="475" as="targetPoint"/>
                    </mxGeometry>
                </mxCell>
                <mxCell id="201" value="logs meals" style="rhombus;whiteSpace=wrap;html=1;" vertex="1" parent="1">
                    <mxGeometry x="379.5" y="397.5" width="111" height="72.5" as="geometry"/>
                </mxCell>
                <mxCell id="202" value="( 1, N )" style="endArrow=none;html=1;exitX=0.5;exitY=0;exitDx=0;exitDy=0;entryX=0.75;entryY=1;entryDx=0;entryDy=0;" edge="1" parent="1" source="201" target="2">
                    <mxGeometry width="50" height="50" relative="1" as="geometry">
                        <mxPoint x="380.76" y="420" as="sourcePoint"/>
                        <mxPoint x="360.1100000000001" y="330" as="targetPoint"/>
                    </mxGeometry>
                </mxCell>
                <mxCell id="203" value="(0, N)" style="endArrow=none;html=1;exitX=0.5;exitY=1;exitDx=0;exitDy=0;" edge="1" parent="1" source="201" target="125">
                    <mxGeometry width="50" height="50" relative="1" as="geometry">
                        <mxPoint x="405.2600000000002" y="472.5" as="sourcePoint"/>
                        <mxPoint x="286.74" y="555" as="targetPoint"/>
                    </mxGeometry>
                </mxCell>
                <mxCell id="206" value="track Progress" style="rhombus;whiteSpace=wrap;html=1;" vertex="1" parent="1">
                    <mxGeometry x="559" y="460" width="111" height="72.5" as="geometry"/>
                </mxCell>
                <mxCell id="207" value="( 1, N )" style="endArrow=none;html=1;exitX=0.5;exitY=0;exitDx=0;exitDy=0;" edge="1" parent="1" source="206" target="2">
                    <mxGeometry width="50" height="50" relative="1" as="geometry">
                        <mxPoint x="473.52" y="825" as="sourcePoint"/>
                        <mxPoint x="452.8700000000001" y="735" as="targetPoint"/>
                        <Array as="points">
                            <mxPoint x="500" y="350"/>
                        </Array>
                    </mxGeometry>
                </mxCell>
                <mxCell id="208" value="(0, N)" style="endArrow=none;html=1;entryX=0.818;entryY=0.015;entryDx=0;entryDy=0;entryPerimeter=0;exitX=0.5;exitY=1;exitDx=0;exitDy=0;" edge="1" parent="1" source="206" target="145">
                    <mxGeometry width="50" height="50" relative="1" as="geometry">
                        <mxPoint x="498" y="880" as="sourcePoint"/>
                        <mxPoint x="379.5" y="960" as="targetPoint"/>
                        <Array as="points">
                            <mxPoint x="690" y="660"/>
                        </Array>
                    </mxGeometry>
                </mxCell>
                <mxCell id="209" value="receives" style="rhombus;whiteSpace=wrap;html=1;" vertex="1" parent="1">
                    <mxGeometry x="-109.05999999999995" y="198.75" width="111" height="72.5" as="geometry"/>
                </mxCell>
                <mxCell id="210" value="( 0, N )" style="endArrow=none;html=1;exitX=1;exitY=0.5;exitDx=0;exitDy=0;entryX=0;entryY=0.5;entryDx=0;entryDy=0;" edge="1" parent="1" source="209" target="2">
                    <mxGeometry width="50" height="50" relative="1" as="geometry">
                        <mxPoint x="-194.53999999999996" y="563.75" as="sourcePoint"/>
                        <mxPoint x="278.75" y="-31.25" as="targetPoint"/>
                    </mxGeometry>
                </mxCell>
                <mxCell id="211" value="(0, N)" style="endArrow=none;html=1;entryX=1;entryY=0.5;entryDx=0;entryDy=0;exitX=0;exitY=0.5;exitDx=0;exitDy=0;" edge="1" parent="1" source="209" target="164">
                    <mxGeometry width="50" height="50" relative="1" as="geometry">
                        <mxPoint x="-170.05999999999995" y="618.75" as="sourcePoint"/>
                        <mxPoint x="-101.25" y="18.75" as="targetPoint"/>
                    </mxGeometry>
                </mxCell>
                <mxCell id="212" value="has Activitty" style="rhombus;whiteSpace=wrap;html=1;" vertex="1" parent="1">
                    <mxGeometry x="-179.05999999999995" y="280" width="111" height="72.5" as="geometry"/>
                </mxCell>
                <mxCell id="213" value="( 0, N )" style="endArrow=none;html=1;exitX=1;exitY=0.5;exitDx=0;exitDy=0;entryX=0;entryY=0.75;entryDx=0;entryDy=0;" edge="1" parent="1" source="212" target="2">
                    <mxGeometry width="50" height="50" relative="1" as="geometry">
                        <mxPoint x="-264.53999999999996" y="645" as="sourcePoint"/>
                        <mxPoint x="30" y="301.25" as="targetPoint"/>
                    </mxGeometry>
                </mxCell>
                <mxCell id="214" value="(0, N)" style="endArrow=none;html=1;exitX=0;exitY=0.5;exitDx=0;exitDy=0;" edge="1" parent="1" source="212" target="181">
                    <mxGeometry width="50" height="50" relative="1" as="geometry">
                        <mxPoint x="-240.05999999999995" y="700" as="sourcePoint"/>
                        <mxPoint x="-350.0000000000001" y="351.25" as="targetPoint"/>
                    </mxGeometry>
                </mxCell>
                <mxCell id="215" value="logged_meal" style="rhombus;whiteSpace=wrap;html=1;" vertex="1" parent="1">
                    <mxGeometry x="-125" y="920" width="100" height="80" as="geometry"/>
                </mxCell>
                <mxCell id="216" value="(1, N)" style="endArrow=none;html=1;exitX=1;exitY=0.5;exitDx=0;exitDy=0;entryX=0;entryY=0.5;entryDx=0;entryDy=0;" edge="1" parent="1" source="44" target="215">
                    <mxGeometry width="50" height="50" relative="1" as="geometry">
                        <mxPoint x="-150.47" y="1015" as="sourcePoint"/>
                        <mxPoint x="-90.47" y="965" as="targetPoint"/>
                    </mxGeometry>
                </mxCell>
                <mxCell id="217" value="(0, N)" style="endArrow=none;html=1;entryX=1;entryY=0.5;entryDx=0;entryDy=0;exitX=0;exitY=0.5;exitDx=0;exitDy=0;" edge="1" parent="1" source="125" target="215">
                    <mxGeometry width="50" height="50" relative="1" as="geometry">
                        <mxPoint x="-130" y="890" as="sourcePoint"/>
                        <mxPoint x="-80" y="840" as="targetPoint"/>
                    </mxGeometry>
                </mxCell>
                <mxCell id="218" value="logged_workout" style="rhombus;whiteSpace=wrap;html=1;" vertex="1" parent="1">
                    <mxGeometry x="-269.06" y="610" width="100" height="80" as="geometry"/>
                </mxCell>
                <mxCell id="219" value="(1, N)" style="endArrow=none;html=1;entryX=0;entryY=0.5;entryDx=0;entryDy=0;exitX=1;exitY=0.75;exitDx=0;exitDy=0;" edge="1" parent="1" target="218" source="63">
                    <mxGeometry width="50" height="50" relative="1" as="geometry">
                        <mxPoint x="-433.5900000000002" y="630" as="sourcePoint"/>
                        <mxPoint x="-234.53" y="655" as="targetPoint"/>
                    </mxGeometry>
                </mxCell>
                <mxCell id="220" value="(0, N)" style="endArrow=none;html=1;entryX=1;entryY=0.5;entryDx=0;entryDy=0;exitX=0;exitY=0.5;exitDx=0;exitDy=0;" edge="1" parent="1" target="218" source="104">
                    <mxGeometry width="50" height="50" relative="1" as="geometry">
                        <mxPoint x="-109.06" y="530" as="sourcePoint"/>
                        <mxPoint x="-224.06" y="530" as="targetPoint"/>
                    </mxGeometry>
                </mxCell>
                <mxCell id="221" value="contains&lt;br&gt;" style="rhombus;whiteSpace=wrap;html=1;" vertex="1" parent="1">
                    <mxGeometry x="-779.06" y="927.48" width="100" height="80" as="geometry"/>
                </mxCell>
                <mxCell id="222" value="(0, N)" style="endArrow=none;html=1;entryX=0;entryY=0.5;entryDx=0;entryDy=0;exitX=1;exitY=0;exitDx=0;exitDy=0;" edge="1" parent="1" target="221" source="84">
                    <mxGeometry width="50" height="50" relative="1" as="geometry">
                        <mxPoint x="-1140.0000000000002" y="1057.513496460303" as="sourcePoint"/>
                        <mxPoint x="-744.53" y="972.48" as="targetPoint"/>
                    </mxGeometry>
                </mxCell>
                <mxCell id="223" value="(1, N)" style="endArrow=none;html=1;entryX=0.5;entryY=0;entryDx=0;entryDy=0;exitX=0.5;exitY=1;exitDx=0;exitDy=0;" edge="1" parent="1" target="221" source="63">
                    <mxGeometry width="50" height="50" relative="1" as="geometry">
                        <mxPoint x="-494.02" y="822.48" as="sourcePoint"/>
                        <mxPoint x="-734.06" y="847.48" as="targetPoint"/>
                    </mxGeometry>
                </mxCell>
            </root>
        </mxGraphModel>
    </diagram>
</mxfile>